#!OML:ASF F:\VICON\USERDATA\INSTALL\rory3\rory3.ASF
:FULLY-SPECIFIED
:DEGREES
3853
root 0.365933 10.2282 -7.66459 337.855 26.599 -361.263
lowerback 37.6143 -0.499048 -1.38756
upperback 13.6883 -0.722155 -1.82656
thorax -3.37813 -0.113562 -0.961209
lowerneck -8.7677 0.704732 -4.65779
upperneck -25.0203 3.09468 8.09825
head -6.36009 1.59526 3.34041
rclavicle 3.10104e-014 -3.18055e-015
rhumerus 52.9898 37.1425 -31.1297
rradius 79.3884
rwrist 17.5511
rhand -13.9271 8.93521
rfingers 7.12502
rthumb 12.1994 -20.689
lclavicle 3.10104e-014 -3.18055e-015
lhumerus 25.0012 -19.4633 68.4433
lradius 49.9203
lwrist -5.66958
lhand -30.7436 20.6522
lfingers 7.12502
lthumb -4.03551 50.5937
rfemur -109.965 -28.1417 29.6065
rtibia 136.752
rfoot 34.0077 -11.3647
rtoes 19.3701
lfemur -67.3547 29.9283 0.536697
ltibia 108.591
lfoot -3.44466 -27.0864
ltoes 10.4564
3854
root 0.364603 10.23 -7.66605 337.853 26.6485 -361.259
lowerback 37.5894 -0.41448 -1.39389
upperback 13.6489 -0.618931 -1.81189
thorax -3.41185 -0.0635509 -0.97809
lowerneck -8.68242 1.08819 -4.03435
upperneck -25.2634 3.54327 7.59635
head -6.47523 1.79055 3.05448
rclavicle 1.59028e-014 -1.43125e-014
rhumerus 52.5383 37.0016 -31.3121
rradius 79.4342
rwrist 17.56
rhand -13.857 8.58993
rfingers 7.12502
rthumb 12.267 -21.0303
lclavicle 1.59028e-014 -1.43125e-014
lhumerus 25.144 -19.4838 68.6889
lradius 49.6099
lwrist -5.25709
lhand -30.7796 20.7651
lfingers 7.12502
lthumb -4.07033 50.706
rfemur -109.959 -28.2496 29.5992
rtibia 136.736
rfoot 34.0424 -11.3688
rtoes 19.4452
lfemur -67.3681 30.0169 0.475645
ltibia 108.572
lfoot -3.37375 -27.1939
ltoes 10.6815
3855
root 0.358562 10.2374 -7.67121 337.793 26.6495 -361.373
lowerback 37.6148 -0.342809 -1.27631
upperback 13.5847 -0.48965 -1.77691
thorax -3.4908 0.00261084 -1.04709
lowerneck -8.53099 1.46459 -3.42001
upperneck -25.5002 3.98847 7.13199
head -6.594 1.9806 2.78049
rclavicle 9.14409e-015 1.19271e-014
rhumerus 51.9834 36.8626 -31.5656
rradius 79.4967
rwrist 17.5642
rhand -13.9293 8.76137
rfingers 7.12502
rthumb 12.1972 -20.863
lclavicle 9.14409e-015 1.19271e-014
lhumerus 25.2675 -19.665 68.8835
lradius 49.4501
lwrist -4.8158
lhand -30.9282 22.0475
lfingers 7.12502
lthumb -4.21384 51.9856
rfemur -109.793 -28.1887 29.6381
rtibia 136.625
rfoot 34.1489 -11.4991
rtoes 19.8976
lfemur -67.3478 30.1844 0.546528
ltibia 108.499
lfoot -3.15035 -27.3656
ltoes 11.1631
3856
root 0.35471 10.2397 -7.67403 337.705 26.6627 -361.487
lowerback 37.6624 -0.234091 -1.24519
upperback 13.5491 -0.335874 -1.64647
thorax -3.54251 0.0739664 -0.979563
lowerneck -8.51091 1.82552 -3.15882
upperneck -25.6435 4.46019 6.87532
head -6.66611 2.20605 2.63518
rclavicle -9.93923e-015 -5.56597e-015
rhumerus 51.493 36.7163 -31.6442
rradius 79.5688
rwrist 17.5023
rhand -14.1636 8.84893
rfingers 7.12502
rthumb 11.9714 -20.7887
lclavicle -9.93923e-015 -5.56597e-015
lhumerus 25.1589 -19.7804 69.1995
lradius 49.7165
lwrist -4.53182
lhand -31.1472 22.8639
lfingers 7.12502
lthumb -4.42532 52.7977
rfemur -109.627 -28.2479 29.7111
rtibia 136.555
rfoot 34.128 -11.6893
rtoes 20.2626
lfemur -67.3469 30.2611 0.645713
ltibia 108.474
lfoot -3.00885 -27.4608
ltoes 11.3083
3857
root 0.354308 10.237 -7.67454 337.647 26.6798 -361.556
lowerback 37.6909 -0.13334 -1.25989
upperback 13.5374 -0.207405 -1.52934
thorax -3.56194 0.131942 -0.893507
lowerneck -8.5939 2.19336 -2.94468
upperneck -25.7217 4.94871 6.66474
head -6.70017 2.44378 2.51325
rclavicle 3.61788e-014 -4.13472e-014
rhumerus 51.1003 36.542 -31.6531
rradius 79.641
rwrist 17.4167
rhand -14.5111 8.93113
rfingers 7.12502
rthumb 11.6362 -20.7258
lclavicle 3.61788e-014 -4.13472e-014
lhumerus 25.1252 -19.6292 69.6085
lradius 49.5883
lwrist -4.3133
lhand -30.9135 20.5308
lfingers 7.12502
lthumb -4.19958 50.4692
rfemur -109.564 -28.3842 29.8122
rtibia 136.549
rfoot 34.014 -11.8661
rtoes 20.4953
lfemur -67.3931 30.2848 0.701726
ltibia 108.49
lfoot -2.97609 -27.4829
ltoes 11.1517
3858
root 0.353585 10.2352 -7.67561 337.573 26.6833 -361.651
lowerback 37.7394 -0.0795493 -1.21636
upperback 13.5147 -0.120037 -1.43995
thorax -3.60177 0.172787 -0.852778
lowerneck -8.5052 2.55739 -2.67309
upperneck -25.9188 5.43201 6.43559
head -6.79773 2.66877 2.37261
rclavicle -6.36111e-015 -3.89618e-014
rhumerus 50.7731 36.3948 -31.7064
rradius 79.6847
rwrist 17.3647
rhand -14.6351 9.13318
rfingers 7.12502
rthumb 11.5167 -20.5304
lclavicle -6.36111e-015 -3.89618e-014
lhumerus 25.2209 -19.5736 69.9445
lradius 49.4295
lwrist -4.01423
lhand -30.9954 21.0653
lfingers 7.12502
lthumb -4.27872 51.002
rfemur -109.512 -28.4569 29.9245
rtibia 136.544
rfoot 34.0108 -11.8092
rtoes 20.2824
lfemur -67.4151 30.3046 0.787466
ltibia 108.493
lfoot -2.88814 -27.5094
ltoes 11.2517
3859
root 0.35261 10.2372 -7.67769 337.518 26.781 -361.58
lowerback 37.8706 -0.0392974 -1.29948
upperback 13.4863 -0.0977323 -1.4087
thorax -3.67409 0.180985 -0.785298
lowerneck -8.38269 2.89408 -2.56907
upperneck -26.1169 5.91814 6.38502
head -6.90746 2.8972 2.31784
rclavicle -1.98785e-015 3.18055e-015
rhumerus 50.4952 36.2999 -31.8538
rradius 79.6644
rwrist 17.4121
rhand -14.4711 9.19986
rfingers 7.12502
rthumb 11.6748 -20.4548
lclavicle -1.98785e-015 3.18055e-015
lhumerus 25.2564 -19.6253 70.0789
lradius 49.3302
lwrist -3.51185
lhand -31.1848 21.1555
lfingers 7.12502
lthumb -4.46159 51.0885
rfemur -109.478 -28.7119 29.8475
rtibia 136.539
rfoot 34.1157 -11.5038
rtoes 19.9567
lfemur -67.3243 30.1848 0.694164
ltibia 108.47
lfoot -2.84334 -27.4653
ltoes 11.4243
3860
root 0.353531 10.2402 -7.67915 337.454 26.8715 -361.483
lowerback 37.9516 -0.00981931 -1.36905
upperback 13.5094 -0.0833162 -1.41488
thorax -3.67391 0.18781 -0.761122
lowerneck -8.29212 3.21041 -2.45249
upperneck -26.3035 6.3849 6.37389
head -7.00761 3.11297 2.27415
rclavicle -2.34566e-014 -2.70347e-014
rhumerus 50.2688 36.1806 -32.0171
rradius 79.6332
rwrist 17.4271
rhand -14.2858 9.11005
rfingers 7.12502
rthumb 11.8535 -20.5344
lclavicle -2.34566e-014 -2.70347e-014
lhumerus 25.3373 -19.6605 70.1739
lradius 49.2232
lwrist -3.10059
lhand -31.4394 20.9649
lfingers 7.12502
lthumb -4.70747 50.8926
rfemur -109.431 -29.02 29.7557
rtibia 136.534
rfoot 34.1511 -11.2856
rtoes 20.1456
lfemur -67.1945 30.0688 0.594552
ltibia 108.454
lfoot -2.84352 -27.4148
ltoes 11.5012
3861
root 0.355535 10.2416 -7.68088 337.392 26.9001 -361.445
lowerback 37.912 0.0166526 -1.36303
upperback 13.5846 -0.041762 -1.40951
thorax -3.57834 0.209486 -0.77268
lowerneck -8.4243 3.4975 -2.37673
upperneck -26.2381 6.80588 6.43046
head -6.9869 3.31394 2.26606
rclavicle 5.20816e-014 -7.95139e-016
rhumerus 50.0609 36.0121 -32.1345
rradius 79.6266
rwrist 17.3901
rhand -14.1885 8.92097
rfingers 7.12502
rthumb 11.9473 -20.7181
lclavicle 5.20816e-014 -7.95139e-016
lhumerus 25.5105 -19.4696 70.5468
lradius 48.9557
lwrist -3.25028
lhand -31.8086 21.4022
lfingers 7.12502
lthumb -5.06389 51.3217
rfemur -109.38 -29.1908 29.7196
rtibia 136.526
rfoot 34.189 -11.169
rtoes 20.3052
lfemur -67.1025 30.0322 0.564446
ltibia 108.445
lfoot -2.81742 -27.4149
ltoes 11.6521
3862
root 0.356338 10.2408 -7.68371 337.386 26.9873 -361.308
lowerback 37.9157 0.0773694 -1.4354
upperback 13.6195 0.0117354 -1.4212
thorax -3.54009 0.235385 -0.766016
lowerneck -8.44895 3.70289 -2.30894
upperneck -26.2358 7.1268 6.53721
head -7.00131 3.45994 2.2774
rclavicle -1.63003e-014 1.11319e-014
rhumerus 49.7471 35.8366 -32.2895
rradius 79.6178
rwrist 17.4377
rhand -14.2681 8.73595
rfingers 7.12502
rthumb 11.8706 -20.9076
lclavicle -1.63003e-014 1.11319e-014
lhumerus 25.637 -19.3156 71.0139
lradius 48.6193
lwrist -3.57589
lhand -32.0946 21.9802
lfingers 7.12502
lthumb -5.34009 51.8929
rfemur -109.399 -29.4004 29.5846
rtibia 136.542
rfoot 34.2594 -11.0786
rtoes 20.3388
lfemur -67.034 29.9336 0.39264
ltibia 108.427
lfoot -2.80437 -27.3868
ltoes 11.7439
3863
root 0.355978 10.2377 -7.68591 337.362 27.0626 -361.24
lowerback 37.9092 0.179856 -1.49178
upperback 13.6187 0.124303 -1.38083
thorax -3.53752 0.287983 -0.733532
lowerneck -8.07329 3.82765 -2.17105
upperneck -26.5746 7.35329 6.59845
head -7.18769 3.5406 2.25454
rclavicle -5.12864e-014 3.57812e-014
rhumerus 49.3316 35.6641 -32.437
rradius 79.6073
rwrist 17.5008
rhand -14.5045 8.77667
rfingers 7.12502
rthumb 11.6427 -20.8799
lclavicle -5.12864e-014 3.57812e-014
lhumerus 25.6822 -19.4097 71.3411
lradius 48.3174
lwrist -3.52882
lhand -32.3211 21.5452
lfingers 7.12502
lthumb -5.55877 51.4523
rfemur -109.41 -29.5826 29.5332
rtibia 136.578
rfoot 34.2074 -11.0001
rtoes 20.2841
lfemur -67.0142 29.8734 0.291469
ltibia 108.423
lfoot -2.76901 -27.3642
ltoes 11.7879
